<svg xmlns="http://www.w3.org/2000/svg" width="18.834" height="18.835" viewBox="0 0 18.834 18.835">
  <path id="Icon_open-magnifying-glass" data-name="Icon open-magnifying-glass" d="M8.166-.022a8.166,8.166,0,0,0,0,16.332,8.071,8.071,0,0,0,3.873-.957,2.333,2.333,0,0,0,.3.3l2.333,2.333a2.38,2.38,0,1,0,3.36-3.36L15.7,12.3a2.333,2.333,0,0,0-.373-.3,8.056,8.056,0,0,0,1.027-3.873A8.175,8.175,0,0,0,8.19-.045Zm0,2.333A5.805,5.805,0,0,1,14,8.145a5.851,5.851,0,0,1-1.54,4.013l-.07.07a2.333,2.333,0,0,0-.3.3A5.838,5.838,0,0,1,8.143,14a5.833,5.833,0,1,1,0-11.666Z" transform="translate(0 0.045)" fill="#757980"/>
</svg>
